<svg width="22" height="22" viewBox="0 0 22 22" fill="none" xmlns="http://www.w3.org/2000/svg">
<path d="M9.91675 5.88439H12.1138V11.3768H9.91675V5.88439Z" fill="url(#paint0_linear_527_635)" fill-opacity="0.7"/>
<path d="M12.1136 15.0384C12.1136 15.645 11.6217 16.1367 11.0151 16.1367C10.4084 16.1367 9.9165 15.645 9.9165 15.0384C9.9165 14.4315 10.4084 13.9398 11.0151 13.9398C11.6217 13.9398 12.1136 14.4315 12.1136 15.0384Z" fill="url(#paint1_linear_527_635)" fill-opacity="0.7"/>
<path d="M11.0152 0.0258179C8.10197 0.0258179 5.30778 1.18308 3.24806 3.24326C1.18789 5.30317 0.0306228 8.09737 0.0306228 11.0104C0.000228854 12.7651 0.422682 14.4979 1.25739 16.0415L0.158844 19.0478C-0.0329715 19.5745 -0.0158603 20.1545 0.206096 20.6692C0.428048 21.1838 0.8385 21.5942 1.35316 21.8162C1.86782 22.0382 2.44785 22.055 2.97453 21.8635L5.98077 20.7649C7.52525 21.6014 9.25928 22.0251 11.0155 21.9952C13.9287 21.9952 16.7229 20.838 18.7827 18.7778C20.8428 16.7179 22.0001 13.9237 22.0001 11.0106C22.0001 8.09754 20.8428 5.30315 18.7827 3.24343C16.7227 1.18325 13.9285 0.025992 11.0155 0.025992L11.0152 0.0258179ZM11.0152 19.7985C9.31037 19.8498 7.63636 19.3347 6.25509 18.334L2.22745 19.7985L3.69196 15.7706V15.7708C2.69123 14.3896 2.17606 12.7156 2.22745 11.0107C2.22745 8.68001 3.15332 6.44467 4.80124 4.79675C6.44915 3.14883 8.68456 2.22297 11.0152 2.22297C13.3458 2.22297 15.5812 3.14883 17.2291 4.79675C18.877 6.44467 19.8029 8.68008 19.8029 11.0107C19.8029 13.3413 18.877 15.5767 17.2291 17.2246C15.5812 18.8725 13.3458 19.7984 11.0152 19.7984L11.0152 19.7985Z" fill="url(#paint2_linear_527_635)" fill-opacity="0.7"/>
<defs>
<linearGradient id="paint0_linear_527_635" x1="10.2463" y1="6.15901" x2="13.0564" y2="7.11695" gradientUnits="userSpaceOnUse">
<stop stop-color="#E3AA02"/>
<stop offset="1" stop-color="#BE7200"/>
</linearGradient>
<linearGradient id="paint1_linear_527_635" x1="10.2461" y1="14.0497" x2="12.0629" y2="15.5982" gradientUnits="userSpaceOnUse">
<stop stop-color="#E3AA02"/>
<stop offset="1" stop-color="#BE7200"/>
</linearGradient>
<linearGradient id="paint2_linear_527_635" x1="3.32243" y1="1.12436" x2="21.4931" y2="16.6113" gradientUnits="userSpaceOnUse">
<stop stop-color="#E3AA02"/>
<stop offset="1" stop-color="#BE7200"/>
</linearGradient>
</defs>
</svg>
