<svg width="15" height="21" viewBox="0 0 15 21" fill="none" xmlns="http://www.w3.org/2000/svg">
<path d="M13.2877 8.62354H1.82149C0.814652 8.62354 -0.00217967 9.44255 4.36957e-06 10.4494V18.4539C4.36957e-06 19.4607 0.81902 20.2776 1.82586 20.2776L13.1785 20.271C14.1853 20.271 15.0022 19.4542 15 18.4474V10.4407C15 9.47313 14.2421 8.6825 13.2877 8.62354Z" fill="#18BA57" fill-opacity="0.5"/>
<path d="M3.43683 7.80812C3.82821 7.80812 4.14555 7.49056 4.14533 7.09918L4.14424 5.93443C4.14336 4.0852 5.64729 2.57974 7.49652 2.57887C9.34575 2.578 10.8512 4.08193 10.8521 5.93115L10.8532 7.10049C10.8536 7.49143 11.1705 7.80834 11.5617 7.80834H12.1024C12.494 7.80834 12.8112 7.49078 12.8109 7.0994L12.8099 5.93006C12.8079 3.00104 10.424 0.619566 7.49521 0.621094C4.56641 0.622623 2.18493 3.00629 2.18646 5.9353L2.18755 7.10049C2.18799 7.49143 2.5049 7.80834 2.89606 7.80834H3.43683V7.80812Z" fill="#18BA57" fill-opacity="0.5"/>
</svg>
