<svg width="14" height="14" viewBox="0 0 14 14" fill="none" xmlns="http://www.w3.org/2000/svg">
<path d="M5.89848 0.508301C3.05277 0.508301 0.734375 2.82668 0.734375 5.67241C0.734375 8.51813 3.05277 10.8365 5.89848 10.8365C7.12923 10.8365 8.25973 10.4015 9.14831 9.67905L12.643 13.1737C12.8516 13.3823 13.1912 13.3824 13.3998 13.1737C13.6084 12.9651 13.6084 12.6311 13.3998 12.4225L9.90512 8.92781C10.629 8.03878 11.0626 6.90453 11.0626 5.67241C11.0626 2.82668 8.7442 0.508301 5.89848 0.508301ZM5.89848 1.57674C8.16677 1.57674 9.99416 3.40411 9.99416 5.67241C9.99416 7.94068 8.16677 9.76809 5.89848 9.76809C3.6302 9.76809 1.80281 7.94068 1.80281 5.67241C1.80281 3.40411 3.6302 1.57674 5.89848 1.57674Z" fill="#C4C4C4"/>
</svg>
