<svg width="18" height="17" viewBox="0 0 18 17" fill="none" xmlns="http://www.w3.org/2000/svg">
<path d="M13.4515 4.45357C13.4515 2.00411 11.4474 0 8.99789 0C6.54842 0 4.54431 2.00411 4.54431 4.45357C4.54431 6.90304 6.54842 8.90715 8.99789 8.90715C11.4474 8.90715 13.4515 6.90304 13.4515 4.45357Z" fill="#18BA57" fill-opacity="0.5"/>
<path d="M10.7609 9.83819C10.1941 10.0204 9.60706 10.1216 8.99975 10.1216C8.39245 10.1216 7.80538 10.0204 7.23857 9.83819C5.45714 9.25113 3.47327 9.73697 2.29915 11.1743C1.42868 12.2472 0.902344 13.6237 0.902344 15.1015C0.902344 15.9315 1.57038 16.5995 2.40036 16.5995H15.5991C16.4291 16.5995 17.0972 15.9315 17.0972 15.1015C17.0972 13.6237 16.5708 12.2472 15.7004 11.1743C14.506 9.73697 12.5424 9.25113 10.7609 9.83819Z" fill="#18BA57" fill-opacity="0.5"/>
</svg>
